<svg width="16" height="16" viewBox="0 0 16 16" fill="none" xmlns="http://www.w3.org/2000/svg">
<g clip-path="url(#clip0_352_5868)">
<rect width="16" height="16" rx="8" fill="#E2E6EE"/>
<path d="M8.00004 11.75C7.47376 11.3011 6.98595 10.809 6.54171 10.2787C5.87504 9.48249 5.08337 8.29666 5.08337 7.16666C5.08278 5.98647 5.79348 4.92224 6.88382 4.47057C7.97416 4.01891 9.22924 4.26884 10.0634 5.10374C10.6119 5.64983 10.9192 6.39265 10.9167 7.16666C10.9167 8.29666 10.125 9.48249 9.45837 10.2787C9.01413 10.809 8.52632 11.3011 8.00004 11.75ZM8.00004 5.91666C7.55346 5.91666 7.1408 6.15491 6.91751 6.54166C6.69422 6.92841 6.69422 7.40491 6.91751 7.79166C7.1408 8.17841 7.55346 8.41666 8.00004 8.41666C8.6904 8.41666 9.25004 7.85701 9.25004 7.16666C9.25004 6.4763 8.6904 5.91666 8.00004 5.91666Z" fill="#79819A"/>
</g>
<defs>
<clipPath id="clip0_352_5868">
<rect width="16" height="16" rx="8" fill="white"/>
</clipPath>
</defs>
</svg>
